solid OpenSCAD_Model
  facet normal -1 0 0
    outer loop
      vertex -95 -70 -79
      vertex -95 -70 -73
      vertex -95 50 -79
    endloop
  endfacet
  facet normal -1 0 0
    outer loop
      vertex -95 50 -79
      vertex -95 -70 -73
      vertex -95 50 -73
    endloop
  endfacet
  facet normal 0 -1 0
    outer loop
      vertex -95 -70 -73
      vertex -95 -70 -79
      vertex 95 -70 -79
    endloop
  endfacet
  facet normal 0 -1 0
    outer loop
      vertex 95 -70 -73
      vertex -95 -70 -73
      vertex 95 -70 -79
    endloop
  endfacet
  facet normal 0 0 -1
    outer loop
      vertex -95 -70 -79
      vertex -95 50 -79
      vertex 95 -70 -79
    endloop
  endfacet
  facet normal 0 0 -1
    outer loop
      vertex 95 -70 -79
      vertex -95 50 -79
      vertex 95 50 -79
    endloop
  endfacet
  facet normal 0 1 0
    outer loop
      vertex -95 50 -79
      vertex -95 50 -73
      vertex 95 50 -79
    endloop
  endfacet
  facet normal 0 1 0
    outer loop
      vertex 95 50 -79
      vertex -95 50 -73
      vertex 95 50 -73
    endloop
  endfacet
  facet normal 0 0 1
    outer loop
      vertex -3.86271 11.8882 -73
      vertex 95 50 -73
      vertex -95 50 -73
    endloop
  endfacet
  facet normal 0 0 1
    outer loop
      vertex 6.25 10.8253 -73
      vertex 8.36413 9.28931 -73
      vertex 95 50 -73
    endloop
  endfacet
  facet normal 0 0 1
    outer loop
      vertex -12.5 0 -73
      vertex -12.2268 2.5989 -73
      vertex -95 50 -73
    endloop
  endfacet
  facet normal 0 0 1
    outer loop
      vertex 6.25 -10.8253 -73
      vertex 3.86271 -11.8882 -73
      vertex 95 -70 -73
    endloop
  endfacet
  facet normal 0 0 1
    outer loop
      vertex -12.2268 2.5989 -73
      vertex -11.4193 5.08421 -73
      vertex -95 50 -73
    endloop
  endfacet
  facet normal 0 0 1
    outer loop
      vertex -11.4193 5.08421 -73
      vertex -10.1127 7.34732 -73
      vertex -95 50 -73
    endloop
  endfacet
  facet normal 0 0 1
    outer loop
      vertex -10.1127 7.34732 -73
      vertex -8.36413 9.28931 -73
      vertex -95 50 -73
    endloop
  endfacet
  facet normal 0 0 1
    outer loop
      vertex -8.36413 9.28931 -73
      vertex -6.25 10.8253 -73
      vertex -95 50 -73
    endloop
  endfacet
  facet normal 0 0 1
    outer loop
      vertex -6.25 10.8253 -73
      vertex -3.86271 11.8882 -73
      vertex -95 50 -73
    endloop
  endfacet
  facet normal 0 0 1
    outer loop
      vertex -1.30661 12.4315 -73
      vertex 1.30661 12.4315 -73
      vertex 95 50 -73
    endloop
  endfacet
  facet normal 0 0 1
    outer loop
      vertex 1.30661 12.4315 -73
      vertex 3.86271 11.8882 -73
      vertex 95 50 -73
    endloop
  endfacet
  facet normal 0 0 1
    outer loop
      vertex 3.86271 11.8882 -73
      vertex 6.25 10.8253 -73
      vertex 95 50 -73
    endloop
  endfacet
  facet normal 0 0 1
    outer loop
      vertex 95 -70 -73
      vertex 95 50 -73
      vertex 8.36413 9.28931 -73
    endloop
  endfacet
  facet normal 0 0 1
    outer loop
      vertex 95 -70 -73
      vertex 8.36413 9.28931 -73
      vertex 10.1127 7.34732 -73
    endloop
  endfacet
  facet normal 0 0 1
    outer loop
      vertex 95 -70 -73
      vertex 10.1127 7.34732 -73
      vertex 11.4193 5.08421 -73
    endloop
  endfacet
  facet normal 0 0 1
    outer loop
      vertex 95 -70 -73
      vertex 11.4193 5.08421 -73
      vertex 12.2268 2.5989 -73
    endloop
  endfacet
  facet normal 0 0 1
    outer loop
      vertex 95 -70 -73
      vertex 12.2268 2.5989 -73
      vertex 12.5 0 -73
    endloop
  endfacet
  facet normal 0 0 1
    outer loop
      vertex 95 -70 -73
      vertex 12.5 0 -73
      vertex 12.2268 -2.5989 -73
    endloop
  endfacet
  facet normal 0 0 1
    outer loop
      vertex 95 -70 -73
      vertex 12.2268 -2.5989 -73
      vertex 11.4193 -5.08421 -73
    endloop
  endfacet
  facet normal 0 0 1
    outer loop
      vertex 95 -70 -73
      vertex 11.4193 -5.08421 -73
      vertex 10.1127 -7.34732 -73
    endloop
  endfacet
  facet normal 0 0 1
    outer loop
      vertex 95 -70 -73
      vertex 10.1127 -7.34732 -73
      vertex 8.36413 -9.28931 -73
    endloop
  endfacet
  facet normal 0 0 1
    outer loop
      vertex 3.86271 -11.8882 -73
      vertex 1.30661 -12.4315 -73
      vertex 95 -70 -73
    endloop
  endfacet
  facet normal 0 0 1
    outer loop
      vertex 95 -70 -73
      vertex 8.36413 -9.28931 -73
      vertex 6.25 -10.8253 -73
    endloop
  endfacet
  facet normal 0 0 1
    outer loop
      vertex -3.86271 11.8882 -73
      vertex -1.30661 12.4315 -73
      vertex 95 50 -73
    endloop
  endfacet
  facet normal 0 0 1
    outer loop
      vertex -95 -70 -73
      vertex 95 -70 -73
      vertex 1.30661 -12.4315 -73
    endloop
  endfacet
  facet normal 0 0 1
    outer loop
      vertex -11.4193 -5.08421 -73
      vertex -12.2268 -2.5989 -73
      vertex -95 50 -73
    endloop
  endfacet
  facet normal 0 0 1
    outer loop
      vertex -95 -70 -73
      vertex 1.30661 -12.4315 -73
      vertex -1.30661 -12.4315 -73
    endloop
  endfacet
  facet normal 0 0 1
    outer loop
      vertex -10.1127 -7.34732 -73
      vertex -11.4193 -5.08421 -73
      vertex -95 50 -73
    endloop
  endfacet
  facet normal 0 0 1
    outer loop
      vertex -95 -70 -73
      vertex -1.30661 -12.4315 -73
      vertex -3.86271 -11.8882 -73
    endloop
  endfacet
  facet normal 0 0 1
    outer loop
      vertex -95 -70 -73
      vertex -6.25 -10.8253 -73
      vertex -95 50 -73
    endloop
  endfacet
  facet normal 0 0 1
    outer loop
      vertex -95 -70 -73
      vertex -3.86271 -11.8882 -73
      vertex -6.25 -10.8253 -73
    endloop
  endfacet
  facet normal 0 0 1
    outer loop
      vertex -6.25 -10.8253 -73
      vertex -8.36413 -9.28931 -73
      vertex -95 50 -73
    endloop
  endfacet
  facet normal 0 0 1
    outer loop
      vertex -8.36413 -9.28931 -73
      vertex -10.1127 -7.34732 -73
      vertex -95 50 -73
    endloop
  endfacet
  facet normal 0 0 1
    outer loop
      vertex -12.2268 -2.5989 -73
      vertex -12.5 0 -73
      vertex -95 50 -73
    endloop
  endfacet
  facet normal 1 0 0
    outer loop
      vertex 95 -70 -73
      vertex 95 -70 -79
      vertex 95 50 -79
    endloop
  endfacet
  facet normal 1 0 0
    outer loop
      vertex 95 50 -73
      vertex 95 -70 -73
      vertex 95 50 -79
    endloop
  endfacet
  facet normal -0.994522 0.104528 0
    outer loop
      vertex -12.5 0 -73
      vertex -12.5 0 -3.31013
      vertex -12.2268 2.5989 -73
    endloop
  endfacet
  facet normal -0.994522 0.104528 0
    outer loop
      vertex -12.2268 2.5989 -73
      vertex -12.5 0 -3.31013
      vertex -12.2268 2.5989 -2.09825
    endloop
  endfacet
  facet normal -0.994522 -0.104528 0
    outer loop
      vertex -12.5 0 -73
      vertex -12.2268 -2.5989 -73
      vertex -12.5 0 -3.31013
    endloop
  endfacet
  facet normal -0.994522 -0.104528 0
    outer loop
      vertex -12.5 0 -3.31013
      vertex -12.2268 -2.5989 -73
      vertex -12.2268 -2.5989 -4.52202
    endloop
  endfacet
  facet normal -0.951056 -0.309017 0
    outer loop
      vertex -12.2268 -2.5989 -73
      vertex -11.4193 -5.08421 -73
      vertex -12.2268 -2.5989 -4.52202
    endloop
  endfacet
  facet normal -0.951056 -0.309017 0
    outer loop
      vertex -12.2268 -2.5989 -4.52202
      vertex -11.4193 -5.08421 -73
      vertex -11.4193 -5.08421 -5.68094
    endloop
  endfacet
  facet normal -0.866025 -0.5 0
    outer loop
      vertex -11.4193 -5.08421 -73
      vertex -10.1127 -7.34732 -73
      vertex -11.4193 -5.08421 -5.68094
    endloop
  endfacet
  facet normal -0.866025 -0.5 0
    outer loop
      vertex -11.4193 -5.08421 -5.68094
      vertex -10.1127 -7.34732 -73
      vertex -10.1127 -7.34732 -6.73624
    endloop
  endfacet
  facet normal -0.743145 -0.669131 0
    outer loop
      vertex -10.1127 -7.34732 -73
      vertex -8.36413 -9.28931 -73
      vertex -10.1127 -7.34732 -6.73624
    endloop
  endfacet
  facet normal -0.743145 -0.669131 0
    outer loop
      vertex -10.1127 -7.34732 -6.73624
      vertex -8.36413 -9.28931 -73
      vertex -8.36413 -9.28931 -7.64181
    endloop
  endfacet
  facet normal -0.587785 -0.809017 0
    outer loop
      vertex -8.36413 -9.28931 -7.64181
      vertex -8.36413 -9.28931 -73
      vertex -6.25 -10.8253 -73
    endloop
  endfacet
  facet normal -0.587785 -0.809017 0
    outer loop
      vertex -6.25 -10.8253 -8.35806
      vertex -8.36413 -9.28931 -7.64181
      vertex -6.25 -10.8253 -73
    endloop
  endfacet
  facet normal -0.406736 -0.913546 0
    outer loop
      vertex -6.25 -10.8253 -8.35806
      vertex -6.25 -10.8253 -73
      vertex -3.86271 -11.8882 -73
    endloop
  endfacet
  facet normal -0.406736 -0.913546 0
    outer loop
      vertex -3.86271 -11.8882 -8.8537
      vertex -6.25 -10.8253 -8.35806
      vertex -3.86271 -11.8882 -73
    endloop
  endfacet
  facet normal -0.207912 -0.978148 0
    outer loop
      vertex -3.86271 -11.8882 -8.8537
      vertex -3.86271 -11.8882 -73
      vertex -1.30661 -12.4315 -73
    endloop
  endfacet
  facet normal -0.207912 -0.978148 0
    outer loop
      vertex -1.30661 -12.4315 -9.10705
      vertex -3.86271 -11.8882 -8.8537
      vertex -1.30661 -12.4315 -73
    endloop
  endfacet
  facet normal 0 -1 0
    outer loop
      vertex -1.30661 -12.4315 -9.10705
      vertex -1.30661 -12.4315 -73
      vertex 1.30661 -12.4315 -73
    endloop
  endfacet
  facet normal 0 -1 0
    outer loop
      vertex 1.30661 -12.4315 -9.10705
      vertex -1.30661 -12.4315 -9.10705
      vertex 1.30661 -12.4315 -73
    endloop
  endfacet
  facet normal 0.207912 -0.978148 0
    outer loop
      vertex 1.30661 -12.4315 -9.10705
      vertex 1.30661 -12.4315 -73
      vertex 3.86271 -11.8882 -73
    endloop
  endfacet
  facet normal 0.207912 -0.978148 0
    outer loop
      vertex 3.86271 -11.8882 -8.8537
      vertex 1.30661 -12.4315 -9.10705
      vertex 3.86271 -11.8882 -73
    endloop
  endfacet
  facet normal 0.406736 -0.913546 0
    outer loop
      vertex 3.86271 -11.8882 -8.8537
      vertex 3.86271 -11.8882 -73
      vertex 6.25 -10.8253 -73
    endloop
  endfacet
  facet normal 0.406736 -0.913546 0
    outer loop
      vertex 6.25 -10.8253 -8.35806
      vertex 3.86271 -11.8882 -8.8537
      vertex 6.25 -10.8253 -73
    endloop
  endfacet
  facet normal 0.587785 -0.809017 0
    outer loop
      vertex 6.25 -10.8253 -8.35806
      vertex 6.25 -10.8253 -73
      vertex 8.36413 -9.28931 -73
    endloop
  endfacet
  facet normal 0.587785 -0.809017 0
    outer loop
      vertex 8.36413 -9.28931 -7.64181
      vertex 6.25 -10.8253 -8.35806
      vertex 8.36413 -9.28931 -73
    endloop
  endfacet
  facet normal 0.743145 -0.669131 0
    outer loop
      vertex 8.36413 -9.28931 -7.64181
      vertex 8.36413 -9.28931 -73
      vertex 10.1127 -7.34732 -73
    endloop
  endfacet
  facet normal 0.743145 -0.669131 0
    outer loop
      vertex 10.1127 -7.34732 -6.73624
      vertex 8.36413 -9.28931 -7.64181
      vertex 10.1127 -7.34732 -73
    endloop
  endfacet
  facet normal 0.866025 -0.5 0
    outer loop
      vertex 10.1127 -7.34732 -6.73624
      vertex 10.1127 -7.34732 -73
      vertex 11.4193 -5.08421 -73
    endloop
  endfacet
  facet normal 0.866025 -0.5 0
    outer loop
      vertex 11.4193 -5.08421 -5.68094
      vertex 10.1127 -7.34732 -6.73624
      vertex 11.4193 -5.08421 -73
    endloop
  endfacet
  facet normal 0.951056 -0.309017 0
    outer loop
      vertex 11.4193 -5.08421 -5.68094
      vertex 11.4193 -5.08421 -73
      vertex 12.2268 -2.5989 -73
    endloop
  endfacet
  facet normal 0.951056 -0.309017 0
    outer loop
      vertex 12.2268 -2.5989 -4.52202
      vertex 11.4193 -5.08421 -5.68094
      vertex 12.2268 -2.5989 -73
    endloop
  endfacet
  facet normal 0.994522 -0.104528 0
    outer loop
      vertex 12.2268 -2.5989 -4.52202
      vertex 12.2268 -2.5989 -73
      vertex 12.5 0 -73
    endloop
  endfacet
  facet normal 0.994522 -0.104528 0
    outer loop
      vertex 12.5 0 -3.31013
      vertex 12.2268 -2.5989 -4.52202
      vertex 12.5 0 -73
    endloop
  endfacet
  facet normal 0.994522 0.104528 0
    outer loop
      vertex 12.5 0 -73
      vertex 12.2268 2.5989 -73
      vertex 12.2268 2.5989 -2.09825
    endloop
  endfacet
  facet normal 0.994522 0.104528 0
    outer loop
      vertex 12.5 0 -3.31013
      vertex 12.5 0 -73
      vertex 12.2268 2.5989 -2.09825
    endloop
  endfacet
  facet normal 0.951056 0.309017 0
    outer loop
      vertex 12.2268 2.5989 -73
      vertex 11.4193 5.08421 -73
      vertex 11.4193 5.08421 -0.939329
    endloop
  endfacet
  facet normal 0.951056 0.309017 0
    outer loop
      vertex 12.2268 2.5989 -2.09825
      vertex 12.2268 2.5989 -73
      vertex 11.4193 5.08421 -0.939329
    endloop
  endfacet
  facet normal 0.866025 0.5 0
    outer loop
      vertex 11.4193 5.08421 -73
      vertex 10.1127 7.34732 -73
      vertex 10.1127 7.34732 0.115976
    endloop
  endfacet
  facet normal 0.866025 0.5 0
    outer loop
      vertex 11.4193 5.08421 -0.939329
      vertex 11.4193 5.08421 -73
      vertex 10.1127 7.34732 0.115976
    endloop
  endfacet
  facet normal 0.743145 0.669131 0
    outer loop
      vertex 10.1127 7.34732 -73
      vertex 8.36413 9.28931 -73
      vertex 8.36413 9.28931 1.02154
    endloop
  endfacet
  facet normal 0.743145 0.669131 0
    outer loop
      vertex 10.1127 7.34732 0.115976
      vertex 10.1127 7.34732 -73
      vertex 8.36413 9.28931 1.02154
    endloop
  endfacet
  facet normal 0.587785 0.809017 0
    outer loop
      vertex 6.25 10.8253 -73
      vertex 6.25 10.8253 1.73779
      vertex 8.36413 9.28931 -73
    endloop
  endfacet
  facet normal 0.587785 0.809017 0
    outer loop
      vertex 8.36413 9.28931 -73
      vertex 6.25 10.8253 1.73779
      vertex 8.36413 9.28931 1.02154
    endloop
  endfacet
  facet normal 0.406736 0.913546 0
    outer loop
      vertex 3.86271 11.8882 -73
      vertex 3.86271 11.8882 -13.7656
      vertex 6.25 10.8253 -73
    endloop
  endfacet
  facet normal 0.406736 0.913546 0
    outer loop
      vertex 6.25 10.8253 -73
      vertex 3.86271 11.8882 -13.7656
      vertex 5 11.3819 -14.0017
    endloop
  endfacet
  facet normal 0.406736 0.913546 0
    outer loop
      vertex 6.25 10.8253 -73
      vertex 5 11.3819 -14.0017
      vertex 5 11.3819 -8.48478
    endloop
  endfacet
  facet normal 0.406736 0.913546 0
    outer loop
      vertex 5 11.3819 -8.48478
      vertex 3.86271 11.8882 -8.24866
      vertex 3.86271 11.8882 2.23343
    endloop
  endfacet
  facet normal 0.406736 0.913546 0
    outer loop
      vertex 5 11.3819 -8.48478
      vertex 3.86271 11.8882 2.23343
      vertex 6.25 10.8253 1.73779
    endloop
  endfacet
  facet normal 0.406736 0.913546 0
    outer loop
      vertex 5 11.3819 -8.48478
      vertex 6.25 10.8253 1.73779
      vertex 6.25 10.8253 -73
    endloop
  endfacet
  facet normal 0.207912 0.978148 0
    outer loop
      vertex 1.30661 12.4315 -73
      vertex 1.30661 12.4315 -27.3044
      vertex 3.86271 11.8882 -73
    endloop
  endfacet
  facet normal 0.207912 0.978148 0
    outer loop
      vertex 3.86271 11.8882 -73
      vertex 1.30661 12.4315 -27.3044
      vertex 2.29143 12.2222 -27.402
    endloop
  endfacet
  facet normal 0.207912 0.978148 0
    outer loop
      vertex 3.86271 11.8882 -73
      vertex 2.29143 12.2222 -27.402
      vertex 2.5 12.1779 -26.1155
    endloop
  endfacet
  facet normal 0.207912 0.978148 0
    outer loop
      vertex 1.76777 12.3335 -22.2664
      vertex 1.30661 12.4315 -22.0246
      vertex 1.30661 12.4315 -13.5122
    endloop
  endfacet
  facet normal 0.207912 0.978148 0
    outer loop
      vertex 1.76777 12.3335 -22.2664
      vertex 1.30661 12.4315 -13.5122
      vertex 2.5 12.1779 -26.1155
    endloop
  endfacet
  facet normal 0.207912 0.978148 0
    outer loop
      vertex 2.5 12.1779 -26.1155
      vertex 1.30661 12.4315 -13.5122
      vertex 3.86271 11.8882 -13.7656
    endloop
  endfacet
  facet normal 0.207912 0.978148 0
    outer loop
      vertex 2.5 12.1779 -26.1155
      vertex 3.86271 11.8882 -13.7656
      vertex 3.86271 11.8882 -73
    endloop
  endfacet
  facet normal 0 1 0
    outer loop
      vertex -1.30661 12.4315 -73
      vertex -1.30661 12.4315 -27.3044
      vertex 1.30661 12.4315 -73
    endloop
  endfacet
  facet normal 0 1 0
    outer loop
      vertex 1.30661 12.4315 -73
      vertex -1.30661 12.4315 -27.3044
      vertex 1.30661 12.4315 -27.3044
    endloop
  endfacet
  facet normal -0.207912 0.978148 0
    outer loop
      vertex -3.86271 11.8882 -73
      vertex -3.86271 11.8882 -13.7656
      vertex -1.30661 12.4315 -73
    endloop
  endfacet
  facet normal -0.207912 0.978148 0
    outer loop
      vertex -1.30661 12.4315 -22.0246
      vertex -3.86271 11.8882 -13.7656
      vertex -1.30661 12.4315 -13.5122
    endloop
  endfacet
  facet normal -0.207912 0.978148 0
    outer loop
      vertex -1.76777 12.3335 -22.2664
      vertex -3.86271 11.8882 -13.7656
      vertex -1.30661 12.4315 -22.0246
    endloop
  endfacet
  facet normal -0.207912 0.978148 0
    outer loop
      vertex -2.5 12.1779 -26.1155
      vertex -3.86271 11.8882 -13.7656
      vertex -1.76777 12.3335 -22.2664
    endloop
  endfacet
  facet normal -0.207912 0.978148 0
    outer loop
      vertex -1.30661 12.4315 -73
      vertex -3.86271 11.8882 -13.7656
      vertex -2.5 12.1779 -26.1155
    endloop
  endfacet
  facet normal -0.207912 0.978148 0
    outer loop
      vertex -1.30661 12.4315 -73
      vertex -2.5 12.1779 -26.1155
      vertex -2.29143 12.2222 -27.402
    endloop
  endfacet
  facet normal -0.207912 0.978148 0
    outer loop
      vertex -1.30661 12.4315 -27.3044
      vertex -1.30661 12.4315 -73
      vertex -2.29143 12.2222 -27.402
    endloop
  endfacet
  facet normal -0.406736 0.913546 0
    outer loop
      vertex -6.25 10.8253 -73
      vertex -6.25 10.8253 1.73779
      vertex -3.86271 11.8882 -73
    endloop
  endfacet
  facet normal -0.406736 0.913546 0
    outer loop
      vertex -3.86271 11.8882 -8.24866
      vertex -6.25 10.8253 1.73779
      vertex -3.86271 11.8882 2.23343
    endloop
  endfacet
  facet normal -0.406736 0.913546 0
    outer loop
      vertex -5 11.3819 -8.48478
      vertex -6.25 10.8253 1.73779
      vertex -3.86271 11.8882 -8.24866
    endloop
  endfacet
  facet normal -0.406736 0.913546 0
    outer loop
      vertex -5 11.3819 -14.0017
      vertex -6.25 10.8253 1.73779
      vertex -5 11.3819 -8.48478
    endloop
  endfacet
  facet normal -0.406736 0.913546 0
    outer loop
      vertex -3.86271 11.8882 -73
      vertex -6.25 10.8253 1.73779
      vertex -5 11.3819 -14.0017
    endloop
  endfacet
  facet normal -0.406736 0.913546 0
    outer loop
      vertex -3.86271 11.8882 -13.7656
      vertex -3.86271 11.8882 -73
      vertex -5 11.3819 -14.0017
    endloop
  endfacet
  facet normal -0.587785 0.809017 0
    outer loop
      vertex -8.36413 9.28931 -73
      vertex -8.36413 9.28931 1.02154
      vertex -6.25 10.8253 -73
    endloop
  endfacet
  facet normal -0.587785 0.809017 0
    outer loop
      vertex -6.25 10.8253 -73
      vertex -8.36413 9.28931 1.02154
      vertex -6.25 10.8253 1.73779
    endloop
  endfacet
  facet normal -0.743145 0.669131 0
    outer loop
      vertex -10.1127 7.34732 -73
      vertex -10.1127 7.34732 0.115976
      vertex -8.36413 9.28931 -73
    endloop
  endfacet
  facet normal -0.743145 0.669131 0
    outer loop
      vertex -8.36413 9.28931 -73
      vertex -10.1127 7.34732 0.115976
      vertex -8.36413 9.28931 1.02154
    endloop
  endfacet
  facet normal -0.866025 0.5 0
    outer loop
      vertex -11.4193 5.08421 -73
      vertex -11.4193 5.08421 -0.939329
      vertex -10.1127 7.34732 -73
    endloop
  endfacet
  facet normal -0.866025 0.5 0
    outer loop
      vertex -10.1127 7.34732 -73
      vertex -11.4193 5.08421 -0.939329
      vertex -10.1127 7.34732 0.115976
    endloop
  endfacet
  facet normal -0.951056 0.309017 0
    outer loop
      vertex -12.2268 2.5989 -73
      vertex -12.2268 2.5989 -2.09825
      vertex -11.4193 5.08421 -73
    endloop
  endfacet
  facet normal -0.951056 0.309017 0
    outer loop
      vertex -11.4193 5.08421 -73
      vertex -12.2268 2.5989 -2.09825
      vertex -11.4193 5.08421 -0.939329
    endloop
  endfacet
  facet normal 0 -0.422618 0.906308
    outer loop
      vertex -12.2268 -2.5989 -4.52202
      vertex -11.4193 -5.08421 -5.68094
      vertex -10.1127 -7.34732 -6.73624
    endloop
  endfacet
  facet normal 0 -0.422618 0.906308
    outer loop
      vertex -6.25 -10.8253 -8.35806
      vertex -12.2268 -2.5989 -4.52202
      vertex -8.36413 -9.28931 -7.64181
    endloop
  endfacet
  facet normal 0 -0.422618 0.906308
    outer loop
      vertex -8.36413 -9.28931 -7.64181
      vertex -12.2268 -2.5989 -4.52202
      vertex -10.1127 -7.34732 -6.73624
    endloop
  endfacet
  facet normal 0 -0.422618 0.906308
    outer loop
      vertex -3.86271 -11.8882 -8.8537
      vertex -12.2268 -2.5989 -4.52202
      vertex -6.25 -10.8253 -8.35806
    endloop
  endfacet
  facet normal 0 -0.422618 0.906308
    outer loop
      vertex -5 -10.061 -8.00165
      vertex -12.2268 -2.5989 -4.52202
      vertex -3.86271 -11.8882 -8.8537
    endloop
  endfacet
  facet normal 0 -0.422618 0.906308
    outer loop
      vertex 5 -10.061 -8.00165
      vertex -1.30661 -12.4315 -9.10705
      vertex 1.30661 -12.4315 -9.10705
    endloop
  endfacet
  facet normal 0 -0.422618 0.906308
    outer loop
      vertex -5 -5.52945 -5.88856
      vertex 5 -5.52945 -5.88856
      vertex -12.2268 -2.5989 -4.52202
    endloop
  endfacet
  facet normal 0 -0.422618 0.906308
    outer loop
      vertex 5 -10.061 -8.00165
      vertex 3.86271 -11.8882 -8.8537
      vertex 6.25 -10.8253 -8.35806
    endloop
  endfacet
  facet normal 0 -0.422618 0.906308
    outer loop
      vertex 5 -5.52945 -5.88856
      vertex 8.36413 -9.28931 -7.64181
      vertex 10.1127 -7.34732 -6.73624
    endloop
  endfacet
  facet normal 0 -0.422618 0.906308
    outer loop
      vertex 5 -5.52945 -5.88856
      vertex 5 -10.061 -8.00165
      vertex 8.36413 -9.28931 -7.64181
    endloop
  endfacet
  facet normal 0 -0.422618 0.906308
    outer loop
      vertex 12.2268 -2.5989 -4.52202
      vertex -12.2268 -2.5989 -4.52202
      vertex 11.4193 -5.08421 -5.68094
    endloop
  endfacet
  facet normal 0 -0.422618 0.906308
    outer loop
      vertex 12.5 0 -3.31013
      vertex -12.2268 -2.5989 -4.52202
      vertex 12.2268 -2.5989 -4.52202
    endloop
  endfacet
  facet normal 0 -0.422618 0.906308
    outer loop
      vertex 0 -0.997915 -3.77547
      vertex -12.2268 -2.5989 -4.52202
      vertex 12.5 0 -3.31013
    endloop
  endfacet
  facet normal 0 -0.422618 0.906308
    outer loop
      vertex 0 -0.997915 -3.77547
      vertex -1.76777 -0.334286 -3.46601
      vertex -12.2268 -2.5989 -4.52202
    endloop
  endfacet
  facet normal 0 -0.422618 0.906308
    outer loop
      vertex 1.76777 2.87 -1.97183
      vertex 2.5 1.26785 -2.71892
      vertex 11.4193 5.08421 -0.939329
    endloop
  endfacet
  facet normal 0 -0.422618 0.906308
    outer loop
      vertex 0 3.53362 -1.66238
      vertex 1.76777 2.87 -1.97183
      vertex 10.1127 7.34732 0.115976
    endloop
  endfacet
  facet normal 0 -0.422618 0.906308
    outer loop
      vertex 6.25 10.8253 1.73779
      vertex -12.2268 -2.5989 -4.52202
      vertex 8.36413 9.28931 1.02154
    endloop
  endfacet
  facet normal 0 -0.422618 0.906308
    outer loop
      vertex 3.86271 11.8882 2.23343
      vertex -12.2268 -2.5989 -4.52202
      vertex 6.25 10.8253 1.73779
    endloop
  endfacet
  facet normal 0 -0.422618 0.906308
    outer loop
      vertex 1.30661 12.4315 2.48678
      vertex -12.2268 -2.5989 -4.52202
      vertex 3.86271 11.8882 2.23343
    endloop
  endfacet
  facet normal 0 -0.422618 0.906308
    outer loop
      vertex -1.30661 12.4315 2.48678
      vertex -12.2268 -2.5989 -4.52202
      vertex 1.30661 12.4315 2.48678
    endloop
  endfacet
  facet normal 0 -0.422618 0.906308
    outer loop
      vertex -3.86271 11.8882 2.23343
      vertex -12.2268 -2.5989 -4.52202
      vertex -1.30661 12.4315 2.48678
    endloop
  endfacet
  facet normal 0 -0.422618 0.906308
    outer loop
      vertex -6.25 10.8253 1.73779
      vertex -12.2268 -2.5989 -4.52202
      vertex -3.86271 11.8882 2.23343
    endloop
  endfacet
  facet normal 0 -0.422618 0.906308
    outer loop
      vertex -8.36413 9.28931 1.02154
      vertex -12.2268 -2.5989 -4.52202
      vertex -6.25 10.8253 1.73779
    endloop
  endfacet
  facet normal 0 -0.422618 0.906308
    outer loop
      vertex -10.1127 7.34732 0.115976
      vertex -12.2268 -2.5989 -4.52202
      vertex -8.36413 9.28931 1.02154
    endloop
  endfacet
  facet normal 0 -0.422618 0.906308
    outer loop
      vertex -11.4193 5.08421 -0.939329
      vertex -12.2268 -2.5989 -4.52202
      vertex -10.1127 7.34732 0.115976
    endloop
  endfacet
  facet normal 0 -0.422618 0.906308
    outer loop
      vertex -12.2268 2.5989 -2.09825
      vertex -12.2268 -2.5989 -4.52202
      vertex -11.4193 5.08421 -0.939329
    endloop
  endfacet
  facet normal 0 -0.422618 0.906308
    outer loop
      vertex -12.5 0 -3.31013
      vertex -12.2268 -2.5989 -4.52202
      vertex -12.2268 2.5989 -2.09825
    endloop
  endfacet
  facet normal 0 -0.422618 0.906308
    outer loop
      vertex 5 -10.061 -8.00165
      vertex 1.30661 -12.4315 -9.10705
      vertex 3.86271 -11.8882 -8.8537
    endloop
  endfacet
  facet normal 0 -0.422618 0.906308
    outer loop
      vertex 11.4193 -5.08421 -5.68094
      vertex 5 -5.52945 -5.88856
      vertex 10.1127 -7.34732 -6.73624
    endloop
  endfacet
  facet normal 0 -0.422618 0.906308
    outer loop
      vertex 11.4193 -5.08421 -5.68094
      vertex -12.2268 -2.5989 -4.52202
      vertex 5 -5.52945 -5.88856
    endloop
  endfacet
  facet normal 0 -0.422618 0.906308
    outer loop
      vertex 8.36413 -9.28931 -7.64181
      vertex 5 -10.061 -8.00165
      vertex 6.25 -10.8253 -8.35806
    endloop
  endfacet
  facet normal 0 -0.422618 0.906308
    outer loop
      vertex -1.30661 -12.4315 -9.10705
      vertex -5 -10.061 -8.00165
      vertex -3.86271 -11.8882 -8.8537
    endloop
  endfacet
  facet normal 0 -0.422618 0.906308
    outer loop
      vertex 5 -10.061 -8.00165
      vertex -5 -10.061 -8.00165
      vertex -1.30661 -12.4315 -9.10705
    endloop
  endfacet
  facet normal 0 -0.422618 0.906308
    outer loop
      vertex 2.5 1.26785 -2.71892
      vertex 1.76777 -0.334286 -3.46601
      vertex 12.2268 2.5989 -2.09825
    endloop
  endfacet
  facet normal 0 -0.422618 0.906308
    outer loop
      vertex 8.36413 9.28931 1.02154
      vertex -1.76777 2.87 -1.97183
      vertex 10.1127 7.34732 0.115976
    endloop
  endfacet
  facet normal 0 -0.422618 0.906308
    outer loop
      vertex 8.36413 9.28931 1.02154
      vertex -12.2268 -2.5989 -4.52202
      vertex -1.76777 2.87 -1.97183
    endloop
  endfacet
  facet normal 0 -0.422618 0.906308
    outer loop
      vertex -1.76777 2.87 -1.97183
      vertex 0 3.53362 -1.66238
      vertex 10.1127 7.34732 0.115976
    endloop
  endfacet
  facet normal 0 -0.422618 0.906308
    outer loop
      vertex 10.1127 7.34732 0.115976
      vertex 1.76777 2.87 -1.97183
      vertex 11.4193 5.08421 -0.939329
    endloop
  endfacet
  facet normal 0 -0.422618 0.906308
    outer loop
      vertex 11.4193 5.08421 -0.939329
      vertex 2.5 1.26785 -2.71892
      vertex 12.2268 2.5989 -2.09825
    endloop
  endfacet
  facet normal 0 -0.422618 0.906308
    outer loop
      vertex 12.2268 2.5989 -2.09825
      vertex 1.76777 -0.334286 -3.46601
      vertex 12.5 0 -3.31013
    endloop
  endfacet
  facet normal 0 -0.422618 0.906308
    outer loop
      vertex 1.76777 -0.334286 -3.46601
      vertex 0 -0.997915 -3.77547
      vertex 12.5 0 -3.31013
    endloop
  endfacet
  facet normal 0 -0.422618 0.906308
    outer loop
      vertex -2.5 1.26785 -2.71892
      vertex -1.76777 2.87 -1.97183
      vertex -12.2268 -2.5989 -4.52202
    endloop
  endfacet
  facet normal 0 -0.422618 0.906308
    outer loop
      vertex -1.76777 -0.334286 -3.46601
      vertex -2.5 1.26785 -2.71892
      vertex -12.2268 -2.5989 -4.52202
    endloop
  endfacet
  facet normal 0 -0.422618 0.906308
    outer loop
      vertex -5 -10.061 -8.00165
      vertex -5 -5.52945 -5.88856
      vertex -12.2268 -2.5989 -4.52202
    endloop
  endfacet
  facet normal 0.207912 0.978148 0
    outer loop
      vertex 1.30661 12.4315 -7.99531
      vertex 1.30661 12.4315 2.48678
      vertex 3.86271 11.8882 -8.24866
    endloop
  endfacet
  facet normal 0.207912 0.978148 0
    outer loop
      vertex 3.86271 11.8882 -8.24866
      vertex 1.30661 12.4315 2.48678
      vertex 3.86271 11.8882 2.23343
    endloop
  endfacet
  facet normal 0 0.422618 -0.906308
    outer loop
      vertex -3.86271 11.8882 -8.24866
      vertex -1.30661 12.4315 -7.99531
      vertex -5 11.3819 -8.48478
    endloop
  endfacet
  facet normal 0 0.422618 -0.906308
    outer loop
      vertex -5 11.3819 -8.48478
      vertex -1.30661 12.4315 -7.99531
      vertex 1.30661 12.4315 -7.99531
    endloop
  endfacet
  facet normal 0 0.422618 -0.906308
    outer loop
      vertex -5 11.3819 -8.48478
      vertex 1.30661 12.4315 -7.99531
      vertex 3.86271 11.8882 -8.24866
    endloop
  endfacet
  facet normal 0 0.422618 -0.906308
    outer loop
      vertex -5 11.3819 -8.48478
      vertex 3.86271 11.8882 -8.24866
      vertex 5 11.3819 -8.48478
    endloop
  endfacet
  facet normal 0 0.422618 -0.906308
    outer loop
      vertex -5 11.3819 -8.48478
      vertex 5 11.3819 -8.48478
      vertex 5 5.28273 -11.3288
    endloop
  endfacet
  facet normal 0 0.422618 -0.906308
    outer loop
      vertex 2.5 5.28273 -11.3288
      vertex 5 5.28273 -11.3288
      vertex 4.6194 3.54858 -12.1375
    endloop
  endfacet
  facet normal 0 0.422618 -0.906308
    outer loop
      vertex 1.76777 3.68059 -12.0759
      vertex 3.53553 2.07845 -12.823
      vertex 1.91342 1.09613 -13.2811
    endloop
  endfacet
  facet normal 0 0.422618 -0.906308
    outer loop
      vertex 0 3.01696 -12.3854
      vertex 1.91342 1.09613 -13.2811
      vertex 0 0.751189 -13.4419
    endloop
  endfacet
  facet normal 0 0.422618 -0.906308
    outer loop
      vertex -1.76777 3.68059 -12.0759
      vertex 0 0.751189 -13.4419
      vertex -1.91342 1.09613 -13.2811
    endloop
  endfacet
  facet normal 0 0.422618 -0.906308
    outer loop
      vertex -5 11.3819 -8.48478
      vertex -1.91342 1.09613 -13.2811
      vertex -3.53553 2.07845 -12.823
    endloop
  endfacet
  facet normal 0 0.422618 -0.906308
    outer loop
      vertex -5 11.3819 -8.48478
      vertex -3.53553 2.07845 -12.823
      vertex -4.6194 3.54858 -12.1375
    endloop
  endfacet
  facet normal 0 0.422618 -0.906308
    outer loop
      vertex -5 11.3819 -8.48478
      vertex -4.6194 3.54858 -12.1375
      vertex -5 5.28273 -11.3288
    endloop
  endfacet
  facet normal 0 0.422618 -0.906308
    outer loop
      vertex -2.5 5.28273 -11.3288
      vertex -1.76777 3.68059 -12.0759
      vertex -1.91342 1.09613 -13.2811
    endloop
  endfacet
  facet normal 0 0.422618 -0.906308
    outer loop
      vertex 1.76777 3.68059 -12.0759
      vertex 1.91342 1.09613 -13.2811
      vertex 0 3.01696 -12.3854
    endloop
  endfacet
  facet normal 0 0.422618 -0.906308
    outer loop
      vertex 2.5 5.28273 -11.3288
      vertex 4.6194 3.54858 -12.1375
      vertex 3.53553 2.07845 -12.823
    endloop
  endfacet
  facet normal 0 0.422618 -0.906308
    outer loop
      vertex 1.76777 6.88487 -10.5818
      vertex 5 5.28273 -11.3288
      vertex 2.5 5.28273 -11.3288
    endloop
  endfacet
  facet normal 0 0.422618 -0.906308
    outer loop
      vertex -1.76777 6.88487 -10.5818
      vertex -5 11.3819 -8.48478
      vertex 0 7.5485 -10.2723
    endloop
  endfacet
  facet normal 0 0.422618 -0.906308
    outer loop
      vertex -5 11.3819 -8.48478
      vertex 5 5.28273 -11.3288
      vertex 1.76777 6.88487 -10.5818
    endloop
  endfacet
  facet normal 0 0.422618 -0.906308
    outer loop
      vertex -5 11.3819 -8.48478
      vertex 1.76777 6.88487 -10.5818
      vertex 0 7.5485 -10.2723
    endloop
  endfacet
  facet normal 0 0.422618 -0.906308
    outer loop
      vertex -2.5 5.28273 -11.3288
      vertex -5 11.3819 -8.48478
      vertex -1.76777 6.88487 -10.5818
    endloop
  endfacet
  facet normal 0 0.422618 -0.906308
    outer loop
      vertex 2.5 5.28273 -11.3288
      vertex 3.53553 2.07845 -12.823
      vertex 1.76777 3.68059 -12.0759
    endloop
  endfacet
  facet normal 0 0.422618 -0.906308
    outer loop
      vertex -5 11.3819 -8.48478
      vertex -2.5 5.28273 -11.3288
      vertex -1.91342 1.09613 -13.2811
    endloop
  endfacet
  facet normal 0 0.422618 -0.906308
    outer loop
      vertex 0 3.01696 -12.3854
      vertex 0 0.751189 -13.4419
      vertex -1.76777 3.68059 -12.0759
    endloop
  endfacet
  facet normal -1 0 0
    outer loop
      vertex 5 11.3819 -14.0017
      vertex 5 7.39582 -15.8604
      vertex 5 11.3819 -8.48478
    endloop
  endfacet
  facet normal -1 0 0
    outer loop
      vertex 5 11.3819 -8.48478
      vertex 5 7.39582 -15.8604
      vertex 5 5.28273 -11.3288
    endloop
  endfacet
  facet normal 0 -0.422618 0.906308
    outer loop
      vertex -4.6194 5.66167 -16.669
      vertex -3.53553 4.19154 -17.3546
      vertex -1.91342 3.20922 -17.8126
    endloop
  endfacet
  facet normal 0 -0.422618 0.906308
    outer loop
      vertex 1.91342 3.20922 -17.8126
      vertex -4.6194 5.66167 -16.669
      vertex 0 2.86428 -17.9735
    endloop
  endfacet
  facet normal 0 -0.422618 0.906308
    outer loop
      vertex 0 2.86428 -17.9735
      vertex -4.6194 5.66167 -16.669
      vertex -1.91342 3.20922 -17.8126
    endloop
  endfacet
  facet normal 0 -0.422618 0.906308
    outer loop
      vertex 3.53553 4.19154 -17.3546
      vertex -4.6194 5.66167 -16.669
      vertex 1.91342 3.20922 -17.8126
    endloop
  endfacet
  facet normal 0 -0.422618 0.906308
    outer loop
      vertex 0 5.13005 -16.9169
      vertex -4.6194 5.66167 -16.669
      vertex 3.53553 4.19154 -17.3546
    endloop
  endfacet
  facet normal 0 -0.422618 0.906308
    outer loop
      vertex 0 5.13005 -16.9169
      vertex -1.76777 5.79368 -16.6075
      vertex -4.6194 5.66167 -16.669
    endloop
  endfacet
  facet normal 0 -0.422618 0.906308
    outer loop
      vertex -2.5 7.39582 -15.8604
      vertex -1.76777 8.99796 -15.1133
      vertex -4.6194 5.66167 -16.669
    endloop
  endfacet
  facet normal 0 -0.422618 0.906308
    outer loop
      vertex 0 9.66159 -14.8038
      vertex 5 11.3819 -14.0017
      vertex 3.86271 11.8882 -13.7656
    endloop
  endfacet
  facet normal 0 -0.422618 0.906308
    outer loop
      vertex -3.86271 11.8882 -13.7656
      vertex -4.6194 5.66167 -16.669
      vertex -1.30661 12.4315 -13.5122
    endloop
  endfacet
  facet normal 0 -0.422618 0.906308
    outer loop
      vertex -5 11.3819 -14.0017
      vertex -4.6194 5.66167 -16.669
      vertex -3.86271 11.8882 -13.7656
    endloop
  endfacet
  facet normal 0 -0.422618 0.906308
    outer loop
      vertex -5 7.39582 -15.8604
      vertex -4.6194 5.66167 -16.669
      vertex -5 11.3819 -14.0017
    endloop
  endfacet
  facet normal 0 -0.422618 0.906308
    outer loop
      vertex -1.76777 8.99796 -15.1133
      vertex 0 9.66159 -14.8038
      vertex 1.30661 12.4315 -13.5122
    endloop
  endfacet
  facet normal 0 -0.422618 0.906308
    outer loop
      vertex -1.30661 12.4315 -13.5122
      vertex -1.76777 8.99796 -15.1133
      vertex 1.30661 12.4315 -13.5122
    endloop
  endfacet
  facet normal 0 -0.422618 0.906308
    outer loop
      vertex -1.30661 12.4315 -13.5122
      vertex -4.6194 5.66167 -16.669
      vertex -1.76777 8.99796 -15.1133
    endloop
  endfacet
  facet normal 0 -0.422618 0.906308
    outer loop
      vertex 1.30661 12.4315 -13.5122
      vertex 0 9.66159 -14.8038
      vertex 3.86271 11.8882 -13.7656
    endloop
  endfacet
  facet normal 0 -0.422618 0.906308
    outer loop
      vertex 5 11.3819 -14.0017
      vertex 1.76777 8.99796 -15.1133
      vertex 5 7.39582 -15.8604
    endloop
  endfacet
  facet normal 0 -0.422618 0.906308
    outer loop
      vertex 0 9.66159 -14.8038
      vertex 1.76777 8.99796 -15.1133
      vertex 5 11.3819 -14.0017
    endloop
  endfacet
  facet normal 0 -0.422618 0.906308
    outer loop
      vertex 1.76777 8.99796 -15.1133
      vertex 2.5 7.39582 -15.8604
      vertex 5 7.39582 -15.8604
    endloop
  endfacet
  facet normal 0 -0.422618 0.906308
    outer loop
      vertex 5 7.39582 -15.8604
      vertex 1.76777 5.79368 -16.6075
      vertex 4.6194 5.66167 -16.669
    endloop
  endfacet
  facet normal 0 -0.422618 0.906308
    outer loop
      vertex 4.6194 5.66167 -16.669
      vertex 0 5.13005 -16.9169
      vertex 3.53553 4.19154 -17.3546
    endloop
  endfacet
  facet normal 0 -0.422618 0.906308
    outer loop
      vertex 2.5 7.39582 -15.8604
      vertex 1.76777 5.79368 -16.6075
      vertex 5 7.39582 -15.8604
    endloop
  endfacet
  facet normal 0 -0.422618 0.906308
    outer loop
      vertex 1.76777 5.79368 -16.6075
      vertex 0 5.13005 -16.9169
      vertex 4.6194 5.66167 -16.669
    endloop
  endfacet
  facet normal 0 -0.422618 0.906308
    outer loop
      vertex -1.76777 5.79368 -16.6075
      vertex -2.5 7.39582 -15.8604
      vertex -4.6194 5.66167 -16.669
    endloop
  endfacet
  facet normal 0 1 0
    outer loop
      vertex -1.30661 12.4315 -22.0246
      vertex -1.30661 12.4315 -13.5122
      vertex 0 12.4315 -20.744
    endloop
  endfacet
  facet normal 0 1 0
    outer loop
      vertex 0 12.4315 -20.744
      vertex -1.30661 12.4315 -13.5122
      vertex 1.30661 12.4315 -13.5122
    endloop
  endfacet
  facet normal 0 1 0
    outer loop
      vertex 0 12.4315 -20.744
      vertex 1.30661 12.4315 -13.5122
      vertex 1.30661 12.4315 -22.0246
    endloop
  endfacet
  facet normal -0.382683 -0.837319 -0.390448
    outer loop
      vertex 0 12.4315 -20.744
      vertex 1.30661 12.4315 -22.0246
      vertex 1.76777 12.3335 -22.2664
    endloop
  endfacet
  facet normal -0.382683 -0.837319 -0.390448
    outer loop
      vertex 0 9.66159 -14.8038
      vertex 0 12.4315 -20.744
      vertex 1.76777 8.99796 -15.1133
    endloop
  endfacet
  facet normal -0.382683 -0.837319 -0.390448
    outer loop
      vertex 1.76777 8.99796 -15.1133
      vertex 0 12.4315 -20.744
      vertex 1.76777 12.3335 -22.2664
    endloop
  endfacet
  facet normal -0.92388 -0.346829 -0.161729
    outer loop
      vertex 2.5 12.1779 -26.1155
      vertex 2.5 7.39582 -15.8604
      vertex 1.76777 12.3335 -22.2664
    endloop
  endfacet
  facet normal -0.92388 -0.346829 -0.161729
    outer loop
      vertex 1.76777 12.3335 -22.2664
      vertex 2.5 7.39582 -15.8604
      vertex 1.76777 8.99796 -15.1133
    endloop
  endfacet
  facet normal -0.92388 0.346829 0.161729
    outer loop
      vertex 2.5 12.1779 -26.1155
      vertex 2.29143 12.2222 -27.402
      vertex 2.5 7.39582 -15.8604
    endloop
  endfacet
  facet normal -0.92388 0.346829 0.161729
    outer loop
      vertex 2.5 7.39582 -15.8604
      vertex 2.29143 12.2222 -27.402
      vertex 1.76777 11.0764 -27.9363
    endloop
  endfacet
  facet normal -0.92388 0.346829 0.161729
    outer loop
      vertex 2.5 7.39582 -15.8604
      vertex 1.76777 11.0764 -27.9363
      vertex 1.76777 5.79368 -16.6075
    endloop
  endfacet
  facet normal 0 -0.422618 0.906308
    outer loop
      vertex -1.76777 11.0764 -27.9363
      vertex 0 10.4128 -28.2458
      vertex 1.76777 11.0764 -27.9363
    endloop
  endfacet
  facet normal 0 -0.422618 0.906308
    outer loop
      vertex 1.30661 12.4315 -27.3044
      vertex -1.76777 11.0764 -27.9363
      vertex 2.29143 12.2222 -27.402
    endloop
  endfacet
  facet normal 0 -0.422618 0.906308
    outer loop
      vertex 2.29143 12.2222 -27.402
      vertex -1.76777 11.0764 -27.9363
      vertex 1.76777 11.0764 -27.9363
    endloop
  endfacet
  facet normal 0 -0.422618 0.906308
    outer loop
      vertex -1.30661 12.4315 -27.3044
      vertex -1.76777 11.0764 -27.9363
      vertex 1.30661 12.4315 -27.3044
    endloop
  endfacet
  facet normal 0 -0.422618 0.906308
    outer loop
      vertex -2.29143 12.2222 -27.402
      vertex -1.76777 11.0764 -27.9363
      vertex -1.30661 12.4315 -27.3044
    endloop
  endfacet
  facet normal 0.92388 0.346829 0.161729
    outer loop
      vertex -1.76777 5.79368 -16.6075
      vertex -1.76777 11.0764 -27.9363
      vertex -2.29143 12.2222 -27.402
    endloop
  endfacet
  facet normal 0.92388 0.346829 0.161729
    outer loop
      vertex -2.5 7.39582 -15.8604
      vertex -1.76777 5.79368 -16.6075
      vertex -2.5 12.1779 -26.1155
    endloop
  endfacet
  facet normal 0.92388 0.346829 0.161729
    outer loop
      vertex -2.5 12.1779 -26.1155
      vertex -1.76777 5.79368 -16.6075
      vertex -2.29143 12.2222 -27.402
    endloop
  endfacet
  facet normal 0.92388 -0.346829 -0.161729
    outer loop
      vertex -2.5 12.1779 -26.1155
      vertex -1.76777 12.3335 -22.2664
      vertex -1.76777 8.99796 -15.1133
    endloop
  endfacet
  facet normal 0.92388 -0.346829 -0.161729
    outer loop
      vertex -2.5 7.39582 -15.8604
      vertex -2.5 12.1779 -26.1155
      vertex -1.76777 8.99796 -15.1133
    endloop
  endfacet
  facet normal 0.382683 -0.837319 -0.390448
    outer loop
      vertex -1.76777 12.3335 -22.2664
      vertex -1.30661 12.4315 -22.0246
      vertex 0 12.4315 -20.744
    endloop
  endfacet
  facet normal 0.382683 -0.837319 -0.390448
    outer loop
      vertex -1.76777 8.99796 -15.1133
      vertex -1.76777 12.3335 -22.2664
      vertex 0 9.66159 -14.8038
    endloop
  endfacet
  facet normal 0.382683 -0.837319 -0.390448
    outer loop
      vertex 0 9.66159 -14.8038
      vertex -1.76777 12.3335 -22.2664
      vertex 0 12.4315 -20.744
    endloop
  endfacet
  facet normal 1 0 0
    outer loop
      vertex -5 7.39582 -15.8604
      vertex -5 11.3819 -14.0017
      vertex -5 11.3819 -8.48478
    endloop
  endfacet
  facet normal 1 0 0
    outer loop
      vertex -5 5.28273 -11.3288
      vertex -5 7.39582 -15.8604
      vertex -5 11.3819 -8.48478
    endloop
  endfacet
  facet normal -0.207912 0.978148 0
    outer loop
      vertex -3.86271 11.8882 -8.24866
      vertex -3.86271 11.8882 2.23343
      vertex -1.30661 12.4315 -7.99531
    endloop
  endfacet
  facet normal -0.207912 0.978148 0
    outer loop
      vertex -1.30661 12.4315 -7.99531
      vertex -3.86271 11.8882 2.23343
      vertex -1.30661 12.4315 2.48678
    endloop
  endfacet
  facet normal 0 1 0
    outer loop
      vertex -1.30661 12.4315 -7.99531
      vertex -1.30661 12.4315 2.48678
      vertex 1.30661 12.4315 -7.99531
    endloop
  endfacet
  facet normal 0 1 0
    outer loop
      vertex 1.30661 12.4315 -7.99531
      vertex -1.30661 12.4315 2.48678
      vertex 1.30661 12.4315 2.48678
    endloop
  endfacet
  facet normal 1 0 0
    outer loop
      vertex -5 -8.37052 -11.6269
      vertex -5 -3.83898 -9.51379
      vertex -5 -5.52945 -5.88856
    endloop
  endfacet
  facet normal 1 0 0
    outer loop
      vertex -5 -10.061 -8.00165
      vertex -5 -8.37052 -11.6269
      vertex -5 -5.52945 -5.88856
    endloop
  endfacet
  facet normal 0 -0.906308 -0.422618
    outer loop
      vertex -5 -3.83898 -9.51379
      vertex 5 -3.83898 -9.51379
      vertex 5 -5.52945 -5.88856
    endloop
  endfacet
  facet normal 0 -0.906308 -0.422618
    outer loop
      vertex -5 -5.52945 -5.88856
      vertex -5 -3.83898 -9.51379
      vertex 5 -5.52945 -5.88856
    endloop
  endfacet
  facet normal 0 0.906308 0.422618
    outer loop
      vertex 5 -8.37052 -11.6269
      vertex -5 -8.37052 -11.6269
      vertex 5 -10.061 -8.00165
    endloop
  endfacet
  facet normal 0 0.906308 0.422618
    outer loop
      vertex 5 -10.061 -8.00165
      vertex -5 -8.37052 -11.6269
      vertex -5 -10.061 -8.00165
    endloop
  endfacet
  facet normal -1 0 0
    outer loop
      vertex 5 -3.83898 -9.51379
      vertex 5 -8.37052 -11.6269
      vertex 5 -5.52945 -5.88856
    endloop
  endfacet
  facet normal -1 0 0
    outer loop
      vertex 5 -5.52945 -5.88856
      vertex 5 -8.37052 -11.6269
      vertex 5 -10.061 -8.00165
    endloop
  endfacet
  facet normal 0.92388 -0.346829 -0.161729
    outer loop
      vertex -2.5 5.28273 -11.3288
      vertex -1.76777 6.88487 -10.5818
      vertex -1.76777 2.87 -1.97183
    endloop
  endfacet
  facet normal 0.92388 -0.346829 -0.161729
    outer loop
      vertex -2.5 1.26785 -2.71892
      vertex -2.5 5.28273 -11.3288
      vertex -1.76777 2.87 -1.97183
    endloop
  endfacet
  facet normal 0.92388 0.346829 0.161729
    outer loop
      vertex -1.76777 -0.334286 -3.46601
      vertex -1.76777 3.68059 -12.0759
      vertex -2.5 5.28273 -11.3288
    endloop
  endfacet
  facet normal 0.92388 0.346829 0.161729
    outer loop
      vertex -2.5 1.26785 -2.71892
      vertex -1.76777 -0.334286 -3.46601
      vertex -2.5 5.28273 -11.3288
    endloop
  endfacet
  facet normal 0.382683 0.837319 0.390448
    outer loop
      vertex 0 3.01696 -12.3854
      vertex -1.76777 3.68059 -12.0759
      vertex 0 -0.997915 -3.77547
    endloop
  endfacet
  facet normal 0.382683 0.837319 0.390448
    outer loop
      vertex 0 -0.997915 -3.77547
      vertex -1.76777 3.68059 -12.0759
      vertex -1.76777 -0.334286 -3.46601
    endloop
  endfacet
  facet normal -0.382683 0.837319 0.390448
    outer loop
      vertex 1.76777 3.68059 -12.0759
      vertex 0 3.01696 -12.3854
      vertex 1.76777 -0.334286 -3.46601
    endloop
  endfacet
  facet normal -0.382683 0.837319 0.390448
    outer loop
      vertex 1.76777 -0.334286 -3.46601
      vertex 0 3.01696 -12.3854
      vertex 0 -0.997915 -3.77547
    endloop
  endfacet
  facet normal -0.92388 0.346829 0.161729
    outer loop
      vertex 2.5 5.28273 -11.3288
      vertex 1.76777 3.68059 -12.0759
      vertex 2.5 1.26785 -2.71892
    endloop
  endfacet
  facet normal -0.92388 0.346829 0.161729
    outer loop
      vertex 2.5 1.26785 -2.71892
      vertex 1.76777 3.68059 -12.0759
      vertex 1.76777 -0.334286 -3.46601
    endloop
  endfacet
  facet normal -0.92388 -0.346829 -0.161729
    outer loop
      vertex 2.5 5.28273 -11.3288
      vertex 2.5 1.26785 -2.71892
      vertex 1.76777 6.88487 -10.5818
    endloop
  endfacet
  facet normal -0.92388 -0.346829 -0.161729
    outer loop
      vertex 1.76777 6.88487 -10.5818
      vertex 2.5 1.26785 -2.71892
      vertex 1.76777 2.87 -1.97183
    endloop
  endfacet
  facet normal -0.382683 -0.837319 -0.390448
    outer loop
      vertex 0 7.5485 -10.2723
      vertex 1.76777 6.88487 -10.5818
      vertex 1.76777 2.87 -1.97183
    endloop
  endfacet
  facet normal -0.382683 -0.837319 -0.390448
    outer loop
      vertex 0 3.53362 -1.66238
      vertex 0 7.5485 -10.2723
      vertex 1.76777 2.87 -1.97183
    endloop
  endfacet
  facet normal 0.382683 -0.837319 -0.390448
    outer loop
      vertex -1.76777 6.88487 -10.5818
      vertex 0 7.5485 -10.2723
      vertex 0 3.53362 -1.66238
    endloop
  endfacet
  facet normal 0.382683 -0.837319 -0.390448
    outer loop
      vertex -1.76777 2.87 -1.97183
      vertex -1.76777 6.88487 -10.5818
      vertex 0 3.53362 -1.66238
    endloop
  endfacet
  facet normal 0.980785 0.176812 0.0824487
    outer loop
      vertex -4.6194 3.54858 -12.1375
      vertex -4.6194 5.66167 -16.669
      vertex -5 7.39582 -15.8604
    endloop
  endfacet
  facet normal 0.980785 0.176812 0.0824487
    outer loop
      vertex -5 5.28273 -11.3288
      vertex -4.6194 3.54858 -12.1375
      vertex -5 7.39582 -15.8604
    endloop
  endfacet
  facet normal 0.83147 0.503518 0.234794
    outer loop
      vertex -3.53553 2.07845 -12.823
      vertex -3.53553 4.19154 -17.3546
      vertex -4.6194 5.66167 -16.669
    endloop
  endfacet
  facet normal 0.83147 0.503518 0.234794
    outer loop
      vertex -4.6194 3.54858 -12.1375
      vertex -3.53553 2.07845 -12.823
      vertex -4.6194 5.66167 -16.669
    endloop
  endfacet
  facet normal 0.55557 0.753567 0.351394
    outer loop
      vertex -1.91342 3.20922 -17.8126
      vertex -3.53553 4.19154 -17.3546
      vertex -1.91342 1.09613 -13.2811
    endloop
  endfacet
  facet normal 0.55557 0.753567 0.351394
    outer loop
      vertex -1.91342 1.09613 -13.2811
      vertex -3.53553 4.19154 -17.3546
      vertex -3.53553 2.07845 -12.823
    endloop
  endfacet
  facet normal 0.19509 0.888893 0.414498
    outer loop
      vertex 0 2.86428 -17.9735
      vertex -1.91342 3.20922 -17.8126
      vertex 0 0.751189 -13.4419
    endloop
  endfacet
  facet normal 0.19509 0.888893 0.414498
    outer loop
      vertex 0 0.751189 -13.4419
      vertex -1.91342 3.20922 -17.8126
      vertex -1.91342 1.09613 -13.2811
    endloop
  endfacet
  facet normal -0.19509 0.888893 0.414498
    outer loop
      vertex 1.91342 3.20922 -17.8126
      vertex 0 2.86428 -17.9735
      vertex 1.91342 1.09613 -13.2811
    endloop
  endfacet
  facet normal -0.19509 0.888893 0.414498
    outer loop
      vertex 1.91342 1.09613 -13.2811
      vertex 0 2.86428 -17.9735
      vertex 0 0.751189 -13.4419
    endloop
  endfacet
  facet normal -0.55557 0.753567 0.351394
    outer loop
      vertex 3.53553 4.19154 -17.3546
      vertex 1.91342 3.20922 -17.8126
      vertex 3.53553 2.07845 -12.823
    endloop
  endfacet
  facet normal -0.55557 0.753567 0.351394
    outer loop
      vertex 3.53553 2.07845 -12.823
      vertex 1.91342 3.20922 -17.8126
      vertex 1.91342 1.09613 -13.2811
    endloop
  endfacet
  facet normal -0.83147 0.503518 0.234794
    outer loop
      vertex 4.6194 5.66167 -16.669
      vertex 3.53553 4.19154 -17.3546
      vertex 4.6194 3.54858 -12.1375
    endloop
  endfacet
  facet normal -0.83147 0.503518 0.234794
    outer loop
      vertex 4.6194 3.54858 -12.1375
      vertex 3.53553 4.19154 -17.3546
      vertex 3.53553 2.07845 -12.823
    endloop
  endfacet
  facet normal -0.980785 0.176812 0.0824487
    outer loop
      vertex 5 7.39582 -15.8604
      vertex 4.6194 5.66167 -16.669
      vertex 5 5.28273 -11.3288
    endloop
  endfacet
  facet normal -0.980785 0.176812 0.0824487
    outer loop
      vertex 5 5.28273 -11.3288
      vertex 4.6194 5.66167 -16.669
      vertex 4.6194 3.54858 -12.1375
    endloop
  endfacet
  facet normal 0.382683 0.837319 0.390448
    outer loop
      vertex 0 10.4128 -28.2458
      vertex -1.76777 11.0764 -27.9363
      vertex 0 5.13005 -16.9169
    endloop
  endfacet
  facet normal 0.382683 0.837319 0.390448
    outer loop
      vertex 0 5.13005 -16.9169
      vertex -1.76777 11.0764 -27.9363
      vertex -1.76777 5.79368 -16.6075
    endloop
  endfacet
  facet normal -0.382683 0.837319 0.390448
    outer loop
      vertex 1.76777 11.0764 -27.9363
      vertex 0 10.4128 -28.2458
      vertex 1.76777 5.79368 -16.6075
    endloop
  endfacet
  facet normal -0.382683 0.837319 0.390448
    outer loop
      vertex 1.76777 5.79368 -16.6075
      vertex 0 10.4128 -28.2458
      vertex 0 5.13005 -16.9169
    endloop
  endfacet
  facet normal 0 -0.422618 0.906308
    outer loop
      vertex 5 -8.37052 -11.6269
      vertex 5 -3.83898 -9.51379
      vertex -5 -3.83898 -9.51379
    endloop
  endfacet
  facet normal 0 -0.422618 0.906308
    outer loop
      vertex -5 -8.37052 -11.6269
      vertex 5 -8.37052 -11.6269
      vertex -5 -3.83898 -9.51379
    endloop
  endfacet
endsolid OpenSCAD_Model
